<svg width="368" height="250" viewBox="0 0 368 250" fill="none" xmlns="http://www.w3.org/2000/svg">
<g filter="url(#filter0_i_215_22)">
<g filter="url(#filter1_i_215_22)">
<rect width="368" height="250" fill="#081028"/>
</g>
</g>
<path d="M148.983 107H146.87C146.745 106.392 146.526 105.858 146.213 105.398C145.907 104.938 145.532 104.551 145.088 104.239C144.651 103.92 144.165 103.682 143.631 103.523C143.097 103.364 142.54 103.284 141.961 103.284C140.904 103.284 139.946 103.551 139.088 104.085C138.236 104.619 137.557 105.406 137.051 106.446C136.551 107.486 136.301 108.761 136.301 110.273C136.301 111.784 136.551 113.06 137.051 114.099C137.557 115.139 138.236 115.926 139.088 116.46C139.946 116.994 140.904 117.261 141.961 117.261C142.54 117.261 143.097 117.182 143.631 117.023C144.165 116.864 144.651 116.628 145.088 116.315C145.532 115.997 145.907 115.608 146.213 115.148C146.526 114.682 146.745 114.148 146.87 113.545H148.983C148.824 114.437 148.534 115.236 148.114 115.94C147.694 116.645 147.171 117.244 146.546 117.739C145.921 118.227 145.219 118.599 144.441 118.855C143.668 119.111 142.841 119.239 141.961 119.239C140.472 119.239 139.148 118.875 137.989 118.148C136.83 117.42 135.918 116.386 135.253 115.045C134.588 113.705 134.256 112.114 134.256 110.273C134.256 108.432 134.588 106.841 135.253 105.5C135.918 104.159 136.83 103.125 137.989 102.398C139.148 101.67 140.472 101.307 141.961 101.307C142.841 101.307 143.668 101.435 144.441 101.69C145.219 101.946 145.921 102.321 146.546 102.815C147.171 103.304 147.694 103.901 148.114 104.605C148.534 105.304 148.824 106.102 148.983 107ZM154.137 111.125V119H152.126V101.545H154.137V107.955H154.308C154.615 107.278 155.075 106.741 155.689 106.344C156.308 105.94 157.132 105.739 158.16 105.739C159.052 105.739 159.833 105.918 160.504 106.276C161.174 106.628 161.694 107.17 162.064 107.903C162.439 108.631 162.626 109.557 162.626 110.682V119H160.615V110.818C160.615 109.778 160.345 108.974 159.805 108.406C159.271 107.832 158.529 107.545 157.581 107.545C156.922 107.545 156.331 107.685 155.808 107.963C155.291 108.241 154.882 108.648 154.581 109.182C154.285 109.716 154.137 110.364 154.137 111.125ZM170.158 119.307C169.328 119.307 168.576 119.151 167.9 118.838C167.223 118.52 166.686 118.062 166.289 117.466C165.891 116.864 165.692 116.136 165.692 115.284C165.692 114.534 165.84 113.926 166.135 113.46C166.431 112.989 166.826 112.619 167.32 112.352C167.814 112.085 168.36 111.886 168.956 111.756C169.559 111.619 170.164 111.511 170.772 111.432C171.567 111.33 172.212 111.253 172.706 111.202C173.206 111.145 173.57 111.051 173.797 110.92C174.03 110.79 174.147 110.562 174.147 110.239V110.17C174.147 109.33 173.917 108.676 173.456 108.21C173.002 107.744 172.311 107.511 171.385 107.511C170.425 107.511 169.672 107.722 169.127 108.142C168.581 108.562 168.198 109.011 167.976 109.489L166.067 108.807C166.408 108.011 166.863 107.392 167.431 106.949C168.005 106.5 168.63 106.187 169.306 106.011C169.988 105.83 170.658 105.739 171.317 105.739C171.738 105.739 172.221 105.79 172.766 105.892C173.317 105.989 173.848 106.19 174.36 106.497C174.877 106.804 175.306 107.267 175.647 107.886C175.988 108.506 176.158 109.335 176.158 110.375V119H174.147V117.227H174.044C173.908 117.511 173.681 117.815 173.363 118.139C173.044 118.463 172.621 118.739 172.093 118.966C171.564 119.193 170.919 119.307 170.158 119.307ZM170.465 117.5C171.26 117.5 171.931 117.344 172.476 117.031C173.027 116.719 173.442 116.315 173.721 115.821C174.005 115.327 174.147 114.807 174.147 114.261V112.42C174.061 112.523 173.874 112.616 173.584 112.702C173.3 112.781 172.971 112.852 172.596 112.915C172.226 112.972 171.865 113.023 171.513 113.068C171.167 113.108 170.885 113.142 170.669 113.17C170.147 113.239 169.658 113.349 169.203 113.503C168.755 113.651 168.391 113.875 168.113 114.176C167.84 114.472 167.703 114.875 167.703 115.386C167.703 116.085 167.962 116.614 168.479 116.972C169.002 117.324 169.664 117.5 170.465 117.5ZM185.522 105.909V107.614H178.738V105.909H185.522ZM180.716 102.773H182.727V115.25C182.727 115.818 182.809 116.244 182.974 116.528C183.145 116.807 183.36 116.994 183.622 117.091C183.889 117.182 184.17 117.227 184.466 117.227C184.687 117.227 184.869 117.216 185.011 117.193C185.153 117.165 185.267 117.142 185.352 117.125L185.761 118.932C185.625 118.983 185.434 119.034 185.19 119.085C184.946 119.142 184.636 119.17 184.261 119.17C183.693 119.17 183.136 119.048 182.591 118.804C182.051 118.56 181.602 118.188 181.244 117.688C180.892 117.188 180.716 116.557 180.716 115.795V102.773ZM200.752 107C200.565 106.426 200.318 105.912 200.011 105.457C199.71 104.997 199.349 104.605 198.929 104.281C198.514 103.957 198.042 103.71 197.514 103.54C196.985 103.369 196.406 103.284 195.775 103.284C194.741 103.284 193.801 103.551 192.954 104.085C192.108 104.619 191.434 105.406 190.934 106.446C190.434 107.486 190.184 108.761 190.184 110.273C190.184 111.784 190.437 113.06 190.943 114.099C191.449 115.139 192.133 115.926 192.997 116.46C193.86 116.994 194.832 117.261 195.912 117.261C196.912 117.261 197.792 117.048 198.554 116.622C199.321 116.19 199.917 115.582 200.343 114.798C200.775 114.009 200.991 113.08 200.991 112.011L201.639 112.148H196.389V110.273H203.037V112.148C203.037 113.585 202.73 114.835 202.116 115.898C201.508 116.96 200.667 117.784 199.593 118.369C198.525 118.949 197.298 119.239 195.912 119.239C194.366 119.239 193.008 118.875 191.838 118.148C190.673 117.42 189.764 116.386 189.11 115.045C188.463 113.705 188.139 112.114 188.139 110.273C188.139 108.892 188.324 107.651 188.693 106.548C189.068 105.44 189.596 104.497 190.278 103.719C190.96 102.94 191.767 102.344 192.699 101.929C193.63 101.514 194.656 101.307 195.775 101.307C196.696 101.307 197.554 101.446 198.349 101.724C199.15 101.997 199.863 102.386 200.488 102.892C201.119 103.392 201.645 103.991 202.065 104.69C202.485 105.384 202.775 106.153 202.934 107H200.752ZM206.657 119V101.545H212.554C213.924 101.545 215.043 101.793 215.912 102.287C216.787 102.776 217.435 103.438 217.855 104.273C218.276 105.108 218.486 106.04 218.486 107.068C218.486 108.097 218.276 109.031 217.855 109.872C217.441 110.713 216.799 111.384 215.929 111.884C215.06 112.378 213.946 112.625 212.588 112.625H208.361V110.75H212.52C213.458 110.75 214.211 110.588 214.779 110.264C215.347 109.94 215.759 109.503 216.015 108.952C216.276 108.395 216.407 107.767 216.407 107.068C216.407 106.369 216.276 105.744 216.015 105.193C215.759 104.642 215.344 104.21 214.77 103.898C214.196 103.58 213.435 103.42 212.486 103.42H208.77V119H206.657ZM220.936 103.42V101.545H234.027V103.42H228.539V119H226.425V103.42H220.936ZM93.2628 148V134.909H98.6151C100.024 134.909 101.143 135.227 101.973 135.864C102.803 136.5 103.217 137.341 103.217 138.386C103.217 139.182 102.982 139.798 102.51 140.236C102.038 140.668 101.433 140.96 100.695 141.114C101.178 141.182 101.646 141.352 102.101 141.625C102.561 141.898 102.942 142.273 103.243 142.75C103.544 143.222 103.695 143.801 103.695 144.489C103.695 145.159 103.524 145.759 103.183 146.287C102.842 146.815 102.354 147.233 101.717 147.54C101.081 147.847 100.32 148 99.4332 148H93.2628ZM95.1719 146.159H99.4332C100.126 146.159 100.669 145.994 101.061 145.665C101.453 145.335 101.649 144.886 101.649 144.318C101.649 143.642 101.453 143.111 101.061 142.724C100.669 142.332 100.126 142.136 99.4332 142.136H95.1719V146.159ZM95.1719 140.398H98.6151C99.1548 140.398 99.6179 140.324 100.004 140.176C100.391 140.023 100.686 139.807 100.891 139.528C101.101 139.244 101.206 138.909 101.206 138.523C101.206 137.972 100.976 137.54 100.516 137.227C100.055 136.909 99.4219 136.75 98.6151 136.75H95.1719V140.398ZM112.739 136.784V134.909H123.376V136.784H119.08V148H117.069V136.784H112.739ZM131.119 148.273C129.857 148.273 128.769 147.994 127.854 147.438C126.945 146.875 126.244 146.091 125.749 145.085C125.261 144.074 125.016 142.898 125.016 141.557C125.016 140.216 125.261 139.034 125.749 138.011C126.244 136.983 126.931 136.182 127.812 135.608C128.698 135.028 129.732 134.739 130.914 134.739C131.596 134.739 132.269 134.852 132.934 135.08C133.599 135.307 134.204 135.676 134.749 136.188C135.295 136.693 135.729 137.364 136.053 138.199C136.377 139.034 136.539 140.062 136.539 141.284V142.136H126.448V140.398H134.494C134.494 139.659 134.346 139 134.05 138.42C133.761 137.841 133.346 137.384 132.806 137.048C132.272 136.713 131.641 136.545 130.914 136.545C130.113 136.545 129.42 136.744 128.835 137.142C128.255 137.534 127.809 138.045 127.496 138.676C127.184 139.307 127.028 139.983 127.028 140.705V141.864C127.028 142.852 127.198 143.69 127.539 144.378C127.886 145.06 128.366 145.58 128.979 145.938C129.593 146.29 130.306 146.466 131.119 146.466C131.647 146.466 132.124 146.392 132.55 146.244C132.982 146.091 133.354 145.864 133.667 145.562C133.979 145.256 134.221 144.875 134.391 144.42L136.335 144.966C136.13 145.625 135.786 146.205 135.303 146.705C134.82 147.199 134.224 147.585 133.513 147.864C132.803 148.136 132.005 148.273 131.119 148.273ZM144.917 148.273C143.69 148.273 142.633 147.983 141.746 147.403C140.86 146.824 140.178 146.026 139.701 145.009C139.224 143.991 138.985 142.83 138.985 141.523C138.985 140.193 139.229 139.02 139.718 138.003C140.212 136.98 140.9 136.182 141.781 135.608C142.667 135.028 143.701 134.739 144.883 134.739C145.803 134.739 146.633 134.909 147.371 135.25C148.11 135.591 148.715 136.068 149.187 136.682C149.658 137.295 149.951 138.011 150.065 138.83H148.053C147.9 138.233 147.559 137.705 147.031 137.244C146.508 136.778 145.803 136.545 144.917 136.545C144.133 136.545 143.445 136.75 142.854 137.159C142.269 137.562 141.812 138.134 141.482 138.872C141.158 139.605 140.996 140.466 140.996 141.455C140.996 142.466 141.156 143.347 141.474 144.097C141.798 144.847 142.252 145.429 142.837 145.844C143.428 146.259 144.121 146.466 144.917 146.466C145.44 146.466 145.914 146.375 146.34 146.193C146.766 146.011 147.127 145.75 147.423 145.409C147.718 145.068 147.928 144.659 148.053 144.182H150.065C149.951 144.955 149.67 145.651 149.221 146.27C148.778 146.884 148.19 147.372 147.457 147.736C146.729 148.094 145.883 148.273 144.917 148.273ZM151.974 136.784V134.909H162.61V136.784H158.315V148H156.303V136.784H151.974ZM167.555 145.034L173.862 134.909H176.18V148H174.169V137.875L167.896 148H165.544V134.909H167.555V145.034ZM179.864 152.909V134.909H181.808V136.989H182.046C182.194 136.761 182.398 136.472 182.66 136.119C182.927 135.761 183.308 135.443 183.802 135.165C184.302 134.881 184.978 134.739 185.83 134.739C186.933 134.739 187.904 135.014 188.745 135.565C189.586 136.116 190.242 136.898 190.714 137.909C191.185 138.92 191.421 140.114 191.421 141.489C191.421 142.875 191.185 144.077 190.714 145.094C190.242 146.105 189.589 146.889 188.754 147.446C187.918 147.997 186.955 148.273 185.864 148.273C185.023 148.273 184.35 148.134 183.844 147.855C183.339 147.571 182.95 147.25 182.677 146.892C182.404 146.528 182.194 146.227 182.046 145.989H181.876V152.909H179.864ZM181.842 141.455C181.842 142.443 181.987 143.315 182.276 144.071C182.566 144.821 182.989 145.409 183.546 145.835C184.103 146.256 184.785 146.466 185.592 146.466C186.433 146.466 187.134 146.244 187.697 145.801C188.265 145.352 188.691 144.75 188.975 143.994C189.265 143.233 189.41 142.386 189.41 141.455C189.41 140.534 189.268 139.705 188.984 138.966C188.705 138.222 188.282 137.634 187.714 137.202C187.151 136.764 186.444 136.545 185.592 136.545C184.773 136.545 184.086 136.753 183.529 137.168C182.972 137.577 182.552 138.151 182.268 138.889C181.984 139.622 181.842 140.477 181.842 141.455ZM199.808 148.273C198.626 148.273 197.589 147.991 196.697 147.429C195.81 146.866 195.117 146.08 194.617 145.068C194.123 144.057 193.876 142.875 193.876 141.523C193.876 140.159 194.123 138.969 194.617 137.952C195.117 136.935 195.81 136.145 196.697 135.582C197.589 135.02 198.626 134.739 199.808 134.739C200.989 134.739 202.023 135.02 202.91 135.582C203.802 136.145 204.495 136.935 204.989 137.952C205.489 138.969 205.739 140.159 205.739 141.523C205.739 142.875 205.489 144.057 204.989 145.068C204.495 146.08 203.802 146.866 202.91 147.429C202.023 147.991 200.989 148.273 199.808 148.273ZM199.808 146.466C200.705 146.466 201.444 146.236 202.023 145.776C202.603 145.315 203.032 144.71 203.31 143.96C203.589 143.21 203.728 142.398 203.728 141.523C203.728 140.648 203.589 139.832 203.31 139.077C203.032 138.321 202.603 137.71 202.023 137.244C201.444 136.778 200.705 136.545 199.808 136.545C198.91 136.545 198.171 136.778 197.592 137.244C197.012 137.71 196.583 138.321 196.305 139.077C196.026 139.832 195.887 140.648 195.887 141.523C195.887 142.398 196.026 143.21 196.305 143.96C196.583 144.71 197.012 145.315 197.592 145.776C198.171 146.236 198.91 146.466 199.808 146.466ZM208.81 148V134.909H214.162C215.571 134.909 216.69 135.227 217.52 135.864C218.349 136.5 218.764 137.341 218.764 138.386C218.764 139.182 218.528 139.798 218.057 140.236C217.585 140.668 216.98 140.96 216.241 141.114C216.724 141.182 217.193 141.352 217.648 141.625C218.108 141.898 218.489 142.273 218.79 142.75C219.091 143.222 219.241 143.801 219.241 144.489C219.241 145.159 219.071 145.759 218.73 146.287C218.389 146.815 217.901 147.233 217.264 147.54C216.628 147.847 215.866 148 214.98 148H208.81ZM210.719 146.159H214.98C215.673 146.159 216.216 145.994 216.608 145.665C217 145.335 217.196 144.886 217.196 144.318C217.196 143.642 217 143.111 216.608 142.724C216.216 142.332 215.673 142.136 214.98 142.136H210.719V146.159ZM210.719 140.398H214.162C214.702 140.398 215.165 140.324 215.551 140.176C215.938 140.023 216.233 139.807 216.438 139.528C216.648 139.244 216.753 138.909 216.753 138.523C216.753 137.972 216.523 137.54 216.062 137.227C215.602 136.909 214.969 136.75 214.162 136.75H210.719V140.398ZM226.138 148.307C225.309 148.307 224.556 148.151 223.88 147.838C223.204 147.52 222.667 147.062 222.269 146.466C221.871 145.864 221.673 145.136 221.673 144.284C221.673 143.534 221.82 142.926 222.116 142.46C222.411 141.989 222.806 141.619 223.3 141.352C223.795 141.085 224.34 140.886 224.937 140.756C225.539 140.619 226.144 140.511 226.752 140.432C227.548 140.33 228.192 140.253 228.687 140.202C229.187 140.145 229.55 140.051 229.778 139.92C230.011 139.79 230.127 139.562 230.127 139.239V139.17C230.127 138.33 229.897 137.676 229.437 137.21C228.982 136.744 228.292 136.511 227.366 136.511C226.406 136.511 225.653 136.722 225.107 137.142C224.562 137.562 224.178 138.011 223.957 138.489L222.048 137.807C222.388 137.011 222.843 136.392 223.411 135.949C223.985 135.5 224.61 135.187 225.286 135.011C225.968 134.83 226.638 134.739 227.298 134.739C227.718 134.739 228.201 134.79 228.746 134.892C229.298 134.989 229.829 135.19 230.34 135.497C230.857 135.804 231.286 136.267 231.627 136.886C231.968 137.506 232.138 138.335 232.138 139.375V148H230.127V146.227H230.025C229.888 146.511 229.661 146.815 229.343 147.139C229.025 147.463 228.602 147.739 228.073 147.966C227.545 148.193 226.9 148.307 226.138 148.307ZM226.445 146.5C227.241 146.5 227.911 146.344 228.457 146.031C229.008 145.719 229.423 145.315 229.701 144.821C229.985 144.327 230.127 143.807 230.127 143.261V141.42C230.042 141.523 229.854 141.616 229.565 141.702C229.281 141.781 228.951 141.852 228.576 141.915C228.207 141.972 227.846 142.023 227.494 142.068C227.147 142.108 226.866 142.142 226.65 142.17C226.127 142.239 225.638 142.349 225.184 142.503C224.735 142.651 224.371 142.875 224.093 143.176C223.82 143.472 223.684 143.875 223.684 144.386C223.684 145.085 223.942 145.614 224.46 145.972C224.982 146.324 225.644 146.5 226.445 146.5ZM244.571 140.534V142.409H237.344V140.534H244.571ZM237.821 134.909V148H235.81V134.909H237.821ZM246.105 134.909V148H244.094V134.909H246.105ZM251.79 145.034L258.097 134.909H260.415V148H258.403V137.875L252.131 148H249.778V134.909H251.79V145.034ZM266.11 145.034L272.417 134.909H274.735V148H272.724V137.875L266.451 148H264.099V134.909H266.11V145.034Z" fill="#E4E7EC"/>
<defs>
<filter id="filter0_i_215_22" x="0" y="0" width="368" height="254" filterUnits="userSpaceOnUse" color-interpolation-filters="sRGB">
<feFlood flood-opacity="0" result="BackgroundImageFix"/>
<feBlend mode="normal" in="SourceGraphic" in2="BackgroundImageFix" result="shape"/>
<feColorMatrix in="SourceAlpha" type="matrix" values="0 0 0 0 0 0 0 0 0 0 0 0 0 0 0 0 0 0 127 0" result="hardAlpha"/>
<feOffset dy="4"/>
<feGaussianBlur stdDeviation="2"/>
<feComposite in2="hardAlpha" operator="arithmetic" k2="-1" k3="1"/>
<feColorMatrix type="matrix" values="0 0 0 0 0.410266 0 0 0 0 0 0 0 0 0 0.911702 0 0 0 1 0"/>
<feBlend mode="normal" in2="shape" result="effect1_innerShadow_215_22"/>
</filter>
<filter id="filter1_i_215_22" x="0" y="0" width="368" height="250" filterUnits="userSpaceOnUse" color-interpolation-filters="sRGB">
<feFlood flood-opacity="0" result="BackgroundImageFix"/>
<feBlend mode="normal" in="SourceGraphic" in2="BackgroundImageFix" result="shape"/>
<feColorMatrix in="SourceAlpha" type="matrix" values="0 0 0 0 0 0 0 0 0 0 0 0 0 0 0 0 0 0 127 0" result="hardAlpha"/>
<feMorphology radius="5" operator="erode" in="SourceAlpha" result="effect1_innerShadow_215_22"/>
<feOffset/>
<feGaussianBlur stdDeviation="5"/>
<feComposite in2="hardAlpha" operator="arithmetic" k2="-1" k3="1"/>
<feColorMatrix type="matrix" values="0 0 0 0 0.350588 0 0 0 0 0 0 0 0 0 0.779085 0 0 0 1 0"/>
<feBlend mode="normal" in2="shape" result="effect1_innerShadow_215_22"/>
</filter>
</defs>
</svg>
