<svg width="368" height="250" viewBox="0 0 368 250" fill="none" xmlns="http://www.w3.org/2000/svg">
<g filter="url(#filter0_i_215_21)">
<g filter="url(#filter1_i_215_21)">
<rect width="368" height="250" fill="#081028"/>
</g>
</g>
<path d="M66.3583 115.545H68.4719V121.375C68.4719 122.239 68.6225 122.918 68.9237 123.412C69.2248 123.901 69.6509 124.247 70.2021 124.452C70.7532 124.651 71.4038 124.75 72.1538 124.75C72.6254 124.75 73.0827 124.733 73.5259 124.699C73.9691 124.659 74.4009 124.605 74.8214 124.537C75.2475 124.469 75.6623 124.386 76.0657 124.29C76.4748 124.193 76.8754 124.085 77.2674 123.966V125.875C76.8867 125.994 76.5089 126.102 76.1339 126.199C75.7646 126.295 75.3782 126.378 74.9748 126.446C74.5771 126.514 74.1481 126.568 73.6879 126.608C73.2276 126.642 72.7163 126.659 72.1538 126.659C70.9492 126.659 69.9123 126.486 69.043 126.139C68.1793 125.793 67.5146 125.233 67.0487 124.46C66.5884 123.687 66.3583 122.659 66.3583 121.375V115.545ZM76.9947 115.545H79.1083V133H76.9947V115.545ZM88.56 133.273C87.2987 133.273 86.2106 132.994 85.2958 132.438C84.3867 131.875 83.685 131.091 83.1907 130.085C82.7021 129.074 82.4577 127.898 82.4577 126.557C82.4577 125.216 82.7021 124.034 83.1907 123.011C83.685 121.983 84.3725 121.182 85.2532 120.608C86.1396 120.028 87.1737 119.739 88.3555 119.739C89.0373 119.739 89.7106 119.852 90.3754 120.08C91.0401 120.307 91.6452 120.676 92.1907 121.188C92.7362 121.693 93.1708 122.364 93.4947 123.199C93.8185 124.034 93.9805 125.062 93.9805 126.284V127.136H83.8896V125.398H91.935C91.935 124.659 91.7873 124 91.4918 123.42C91.2021 122.841 90.7873 122.384 90.2475 122.048C89.7134 121.713 89.0827 121.545 88.3555 121.545C87.5543 121.545 86.8612 121.744 86.2759 122.142C85.6964 122.534 85.2504 123.045 84.9379 123.676C84.6254 124.307 84.4691 124.983 84.4691 125.705V126.864C84.4691 127.852 84.6396 128.69 84.9805 129.378C85.3271 130.06 85.8072 130.58 86.4208 130.938C87.0344 131.29 87.7475 131.466 88.56 131.466C89.0884 131.466 89.5657 131.392 89.9918 131.244C90.4237 131.091 90.7958 130.864 91.1083 130.562C91.4208 130.256 91.6623 129.875 91.8327 129.42L93.7759 129.966C93.5714 130.625 93.2276 131.205 92.7447 131.705C92.2617 132.199 91.6651 132.585 90.9549 132.864C90.2447 133.136 89.4464 133.273 88.56 133.273ZM97.0401 133V119.909H99.0515V125.602H100.381L105.086 119.909H107.676L102.392 126.216L107.745 133H105.154L100.858 127.477H99.0515V133H97.0401ZM116.329 124.58V126.455H108.693V124.58H116.329ZM118.709 133V131.125H119.186C119.578 131.125 119.905 131.048 120.167 130.895C120.428 130.736 120.638 130.46 120.797 130.068C120.962 129.67 121.087 129.119 121.172 128.415C121.263 127.705 121.328 126.801 121.368 125.705L121.607 119.909H130.334V133H128.323V121.784H123.516L123.311 126.455C123.266 127.528 123.169 128.474 123.022 129.293C122.88 130.105 122.661 130.787 122.365 131.338C122.076 131.889 121.689 132.304 121.206 132.582C120.723 132.861 120.118 133 119.391 133H118.709ZM136.036 130.034L142.343 119.909H144.661V133H142.65V122.875L136.377 133H134.025V119.909H136.036V130.034ZM153.663 133.273C152.436 133.273 151.379 132.983 150.493 132.403C149.606 131.824 148.924 131.026 148.447 130.009C147.97 128.991 147.731 127.83 147.731 126.523C147.731 125.193 147.975 124.02 148.464 123.003C148.958 121.98 149.646 121.182 150.527 120.608C151.413 120.028 152.447 119.739 153.629 119.739C154.549 119.739 155.379 119.909 156.118 120.25C156.856 120.591 157.461 121.068 157.933 121.682C158.404 122.295 158.697 123.011 158.811 123.83H156.799C156.646 123.233 156.305 122.705 155.777 122.244C155.254 121.778 154.549 121.545 153.663 121.545C152.879 121.545 152.191 121.75 151.6 122.159C151.015 122.562 150.558 123.134 150.228 123.872C149.904 124.605 149.743 125.466 149.743 126.455C149.743 127.466 149.902 128.347 150.22 129.097C150.544 129.847 150.998 130.429 151.583 130.844C152.174 131.259 152.868 131.466 153.663 131.466C154.186 131.466 154.66 131.375 155.086 131.193C155.512 131.011 155.873 130.75 156.169 130.409C156.464 130.068 156.674 129.659 156.799 129.182H158.811C158.697 129.955 158.416 130.651 157.967 131.27C157.524 131.884 156.936 132.372 156.203 132.736C155.475 133.094 154.629 133.273 153.663 133.273ZM160.72 121.784V119.909H171.356V121.784H167.061V133H165.049V121.784H160.72ZM182.029 133H179.813L186.222 115.545H188.404L194.813 133H192.597L187.381 118.307H187.245L182.029 133ZM182.847 126.182H191.779V128.057H182.847V126.182ZM197.532 133V115.545H203.429C204.799 115.545 205.918 115.793 206.787 116.287C207.662 116.776 208.31 117.438 208.73 118.273C209.151 119.108 209.361 120.04 209.361 121.068C209.361 122.097 209.151 123.031 208.73 123.872C208.316 124.713 207.674 125.384 206.804 125.884C205.935 126.378 204.821 126.625 203.463 126.625H199.236V124.75H203.395C204.333 124.75 205.086 124.588 205.654 124.264C206.222 123.94 206.634 123.503 206.89 122.952C207.151 122.395 207.282 121.767 207.282 121.068C207.282 120.369 207.151 119.744 206.89 119.193C206.634 118.642 206.219 118.21 205.645 117.898C205.071 117.58 204.31 117.42 203.361 117.42H199.645V133H197.532ZM214.88 115.545V133H212.766V115.545H214.88ZM224.845 121.784V119.909H235.481V121.784H231.186V133H229.174V121.784H224.845ZM243.224 133.273C241.963 133.273 240.875 132.994 239.96 132.438C239.051 131.875 238.349 131.091 237.855 130.085C237.366 129.074 237.122 127.898 237.122 126.557C237.122 125.216 237.366 124.034 237.855 123.011C238.349 121.983 239.037 121.182 239.917 120.608C240.804 120.028 241.838 119.739 243.02 119.739C243.701 119.739 244.375 119.852 245.039 120.08C245.704 120.307 246.309 120.676 246.855 121.188C247.4 121.693 247.835 122.364 248.159 123.199C248.483 124.034 248.645 125.062 248.645 126.284V127.136H238.554V125.398H246.599C246.599 124.659 246.451 124 246.156 123.42C245.866 122.841 245.451 122.384 244.912 122.048C244.377 121.713 243.747 121.545 243.02 121.545C242.218 121.545 241.525 121.744 240.94 122.142C240.36 122.534 239.914 123.045 239.602 123.676C239.289 124.307 239.133 124.983 239.133 125.705V126.864C239.133 127.852 239.304 128.69 239.645 129.378C239.991 130.06 240.471 130.58 241.085 130.938C241.699 131.29 242.412 131.466 243.224 131.466C243.752 131.466 244.23 131.392 244.656 131.244C245.088 131.091 245.46 130.864 245.772 130.562C246.085 130.256 246.326 129.875 246.497 129.42L248.44 129.966C248.235 130.625 247.892 131.205 247.409 131.705C246.926 132.199 246.329 132.585 245.619 132.864C244.909 133.136 244.11 133.273 243.224 133.273ZM257.022 133.273C255.795 133.273 254.738 132.983 253.852 132.403C252.966 131.824 252.284 131.026 251.806 130.009C251.329 128.991 251.091 127.83 251.091 126.523C251.091 125.193 251.335 124.02 251.824 123.003C252.318 121.98 253.005 121.182 253.886 120.608C254.772 120.028 255.806 119.739 256.988 119.739C257.909 119.739 258.738 119.909 259.477 120.25C260.216 120.591 260.821 121.068 261.292 121.682C261.764 122.295 262.056 123.011 262.17 123.83H260.159C260.005 123.233 259.664 122.705 259.136 122.244C258.613 121.778 257.909 121.545 257.022 121.545C256.238 121.545 255.551 121.75 254.96 122.159C254.375 122.562 253.917 123.134 253.588 123.872C253.264 124.605 253.102 125.466 253.102 126.455C253.102 127.466 253.261 128.347 253.579 129.097C253.903 129.847 254.358 130.429 254.943 130.844C255.534 131.259 256.227 131.466 257.022 131.466C257.545 131.466 258.02 131.375 258.446 131.193C258.872 131.011 259.233 130.75 259.528 130.409C259.824 130.068 260.034 129.659 260.159 129.182H262.17C262.056 129.955 261.775 130.651 261.326 131.27C260.883 131.884 260.295 132.372 259.562 132.736C258.835 133.094 257.988 133.273 257.022 133.273ZM264.079 121.784V119.909H274.716V121.784H270.42V133H268.409V121.784H264.079ZM282.288 133.273C281.106 133.273 280.069 132.991 279.177 132.429C278.291 131.866 277.598 131.08 277.098 130.068C276.603 129.057 276.356 127.875 276.356 126.523C276.356 125.159 276.603 123.969 277.098 122.952C277.598 121.935 278.291 121.145 279.177 120.582C280.069 120.02 281.106 119.739 282.288 119.739C283.47 119.739 284.504 120.02 285.39 120.582C286.282 121.145 286.975 121.935 287.47 122.952C287.97 123.969 288.22 125.159 288.22 126.523C288.22 127.875 287.97 129.057 287.47 130.068C286.975 131.08 286.282 131.866 285.39 132.429C284.504 132.991 283.47 133.273 282.288 133.273ZM282.288 131.466C283.186 131.466 283.924 131.236 284.504 130.776C285.083 130.315 285.512 129.71 285.791 128.96C286.069 128.21 286.208 127.398 286.208 126.523C286.208 125.648 286.069 124.832 285.791 124.077C285.512 123.321 285.083 122.71 284.504 122.244C283.924 121.778 283.186 121.545 282.288 121.545C281.39 121.545 280.652 121.778 280.072 122.244C279.493 122.71 279.064 123.321 278.785 124.077C278.507 124.832 278.368 125.648 278.368 126.523C278.368 127.398 278.507 128.21 278.785 128.96C279.064 129.71 279.493 130.315 280.072 130.776C280.652 131.236 281.39 131.466 282.288 131.466ZM291.29 133V119.909H296.642C298.051 119.909 299.171 120.227 300 120.864C300.83 121.5 301.245 122.341 301.245 123.386C301.245 124.182 301.009 124.798 300.537 125.236C300.066 125.668 299.461 125.96 298.722 126.114C299.205 126.182 299.674 126.352 300.128 126.625C300.588 126.898 300.969 127.273 301.27 127.75C301.571 128.222 301.722 128.801 301.722 129.489C301.722 130.159 301.551 130.759 301.211 131.287C300.87 131.815 300.381 132.233 299.745 132.54C299.108 132.847 298.347 133 297.461 133H291.29ZM293.199 131.159H297.461C298.154 131.159 298.696 130.994 299.088 130.665C299.48 130.335 299.676 129.886 299.676 129.318C299.676 128.642 299.48 128.111 299.088 127.724C298.696 127.332 298.154 127.136 297.461 127.136H293.199V131.159ZM293.199 125.398H296.642C297.182 125.398 297.645 125.324 298.032 125.176C298.418 125.023 298.713 124.807 298.918 124.528C299.128 124.244 299.233 123.909 299.233 123.523C299.233 122.972 299.003 122.54 298.543 122.227C298.083 121.909 297.449 121.75 296.642 121.75H293.199V125.398Z" fill="#E4E7EC"/>
<defs>
<filter id="filter0_i_215_21" x="0" y="0" width="368" height="254" filterUnits="userSpaceOnUse" color-interpolation-filters="sRGB">
<feFlood flood-opacity="0" result="BackgroundImageFix"/>
<feBlend mode="normal" in="SourceGraphic" in2="BackgroundImageFix" result="shape"/>
<feColorMatrix in="SourceAlpha" type="matrix" values="0 0 0 0 0 0 0 0 0 0 0 0 0 0 0 0 0 0 127 0" result="hardAlpha"/>
<feOffset dy="4"/>
<feGaussianBlur stdDeviation="2"/>
<feComposite in2="hardAlpha" operator="arithmetic" k2="-1" k3="1"/>
<feColorMatrix type="matrix" values="0 0 0 0 0.410266 0 0 0 0 0 0 0 0 0 0.911702 0 0 0 1 0"/>
<feBlend mode="normal" in2="shape" result="effect1_innerShadow_215_21"/>
</filter>
<filter id="filter1_i_215_21" x="0" y="0" width="368" height="250" filterUnits="userSpaceOnUse" color-interpolation-filters="sRGB">
<feFlood flood-opacity="0" result="BackgroundImageFix"/>
<feBlend mode="normal" in="SourceGraphic" in2="BackgroundImageFix" result="shape"/>
<feColorMatrix in="SourceAlpha" type="matrix" values="0 0 0 0 0 0 0 0 0 0 0 0 0 0 0 0 0 0 127 0" result="hardAlpha"/>
<feMorphology radius="5" operator="erode" in="SourceAlpha" result="effect1_innerShadow_215_21"/>
<feOffset/>
<feGaussianBlur stdDeviation="5"/>
<feComposite in2="hardAlpha" operator="arithmetic" k2="-1" k3="1"/>
<feColorMatrix type="matrix" values="0 0 0 0 0.350588 0 0 0 0 0 0 0 0 0 0.779085 0 0 0 1 0"/>
<feBlend mode="normal" in2="shape" result="effect1_innerShadow_215_21"/>
</filter>
</defs>
</svg>
