<svg width="368" height="250" viewBox="0 0 368 250" fill="none" xmlns="http://www.w3.org/2000/svg">
<g filter="url(#filter0_i_214_120)">
<g filter="url(#filter1_i_214_120)">
<rect width="368" height="250" fill="#081028"/>
</g>
<path d="M46.6786 101.545H48.7923V107.375C48.7923 108.239 48.9428 108.918 49.244 109.412C49.5451 109.901 49.9712 110.247 50.5224 110.452C51.0735 110.651 51.7241 110.75 52.4741 110.75C52.9457 110.75 53.4031 110.733 53.8462 110.699C54.2894 110.659 54.7212 110.605 55.1417 110.537C55.5678 110.469 55.9826 110.386 56.386 110.29C56.7951 110.193 57.1957 110.085 57.5877 109.966V111.875C57.207 111.994 56.8292 112.102 56.4542 112.199C56.0849 112.295 55.6985 112.378 55.2951 112.446C54.8974 112.514 54.4684 112.568 54.0082 112.608C53.5479 112.642 53.0366 112.659 52.4741 112.659C51.2695 112.659 50.2326 112.486 49.3633 112.139C48.4996 111.793 47.8349 111.233 47.369 110.46C46.9087 109.687 46.6786 108.659 46.6786 107.375V101.545ZM57.315 101.545H59.4286V119H57.315V101.545ZM68.8803 119.273C67.619 119.273 66.5309 118.994 65.6161 118.438C64.707 117.875 64.0053 117.091 63.511 116.085C63.0224 115.074 62.7781 113.898 62.7781 112.557C62.7781 111.216 63.0224 110.034 63.511 109.011C64.0053 107.983 64.6928 107.182 65.5735 106.608C66.4599 106.028 67.494 105.739 68.6758 105.739C69.3576 105.739 70.0309 105.852 70.6957 106.08C71.3604 106.307 71.9656 106.676 72.511 107.188C73.0565 107.693 73.4911 108.364 73.815 109.199C74.1388 110.034 74.3008 111.062 74.3008 112.284V113.136H64.2099V111.398H72.2553C72.2553 110.659 72.1076 110 71.8121 109.42C71.5224 108.841 71.1076 108.384 70.5678 108.048C70.0337 107.713 69.4031 107.545 68.6758 107.545C67.8746 107.545 67.1815 107.744 66.5962 108.142C66.0167 108.534 65.5707 109.045 65.2582 109.676C64.9457 110.307 64.7894 110.983 64.7894 111.705V112.864C64.7894 113.852 64.9599 114.69 65.3008 115.378C65.6474 116.06 66.1275 116.58 66.7411 116.938C67.3548 117.29 68.0678 117.466 68.8803 117.466C69.4087 117.466 69.886 117.392 70.3121 117.244C70.744 117.091 71.1161 116.864 71.4286 116.562C71.7411 116.256 71.9826 115.875 72.1531 115.42L74.0962 115.966C73.8917 116.625 73.5479 117.205 73.065 117.705C72.582 118.199 71.9854 118.585 71.2752 118.864C70.565 119.136 69.7667 119.273 68.8803 119.273ZM77.3604 119V105.909H79.3718V111.602H80.7013L85.4059 105.909H87.9968L82.7127 112.216L88.065 119H85.4741L81.1786 113.477H79.3718V119H77.3604ZM96.6495 110.58V112.455H89.0131V110.58H96.6495ZM99.0295 119V117.125H99.5067C99.8988 117.125 100.225 117.048 100.487 116.895C100.748 116.736 100.958 116.46 101.118 116.068C101.282 115.67 101.407 115.119 101.493 114.415C101.583 113.705 101.649 112.801 101.689 111.705L101.927 105.909H110.654V119H108.643V107.784H103.836L103.632 112.455C103.586 113.528 103.49 114.474 103.342 115.293C103.2 116.105 102.981 116.787 102.686 117.338C102.396 117.889 102.01 118.304 101.527 118.582C101.044 118.861 100.439 119 99.7113 119H99.0295ZM116.356 116.034L122.663 105.909H124.981V119H122.97V108.875L116.697 119H114.345V105.909H116.356V116.034ZM133.983 119.273C132.756 119.273 131.699 118.983 130.813 118.403C129.926 117.824 129.245 117.026 128.767 116.009C128.29 114.991 128.051 113.83 128.051 112.523C128.051 111.193 128.296 110.02 128.784 109.003C129.279 107.98 129.966 107.182 130.847 106.608C131.733 106.028 132.767 105.739 133.949 105.739C134.87 105.739 135.699 105.909 136.438 106.25C137.176 106.591 137.782 107.068 138.253 107.682C138.725 108.295 139.017 109.011 139.131 109.83H137.12C136.966 109.233 136.625 108.705 136.097 108.244C135.574 107.778 134.87 107.545 133.983 107.545C133.199 107.545 132.512 107.75 131.921 108.159C131.336 108.562 130.878 109.134 130.549 109.872C130.225 110.605 130.063 111.466 130.063 112.455C130.063 113.466 130.222 114.347 130.54 115.097C130.864 115.847 131.319 116.429 131.904 116.844C132.495 117.259 133.188 117.466 133.983 117.466C134.506 117.466 134.98 117.375 135.407 117.193C135.833 117.011 136.194 116.75 136.489 116.409C136.784 116.068 136.995 115.659 137.12 115.182H139.131C139.017 115.955 138.736 116.651 138.287 117.27C137.844 117.884 137.256 118.372 136.523 118.736C135.796 119.094 134.949 119.273 133.983 119.273ZM141.04 107.784V105.909H151.676V107.784H147.381V119H145.37V107.784H141.04ZM160.61 107.784V105.909H171.247V107.784H166.951V119H164.94V107.784H160.61ZM178.99 119.273C177.728 119.273 176.64 118.994 175.725 118.438C174.816 117.875 174.115 117.091 173.62 116.085C173.132 115.074 172.887 113.898 172.887 112.557C172.887 111.216 173.132 110.034 173.62 109.011C174.115 107.983 174.802 107.182 175.683 106.608C176.569 106.028 177.603 105.739 178.785 105.739C179.467 105.739 180.14 105.852 180.805 106.08C181.47 106.307 182.075 106.676 182.62 107.188C183.166 107.693 183.6 108.364 183.924 109.199C184.248 110.034 184.41 111.062 184.41 112.284V113.136H174.319V111.398H182.365C182.365 110.659 182.217 110 181.922 109.42C181.632 108.841 181.217 108.384 180.677 108.048C180.143 107.713 179.512 107.545 178.785 107.545C177.984 107.545 177.291 107.744 176.706 108.142C176.126 108.534 175.68 109.045 175.368 109.676C175.055 110.307 174.899 110.983 174.899 111.705V112.864C174.899 113.852 175.069 114.69 175.41 115.378C175.757 116.06 176.237 116.58 176.85 116.938C177.464 117.29 178.177 117.466 178.99 117.466C179.518 117.466 179.995 117.392 180.422 117.244C180.853 117.091 181.225 116.864 181.538 116.562C181.85 116.256 182.092 115.875 182.262 115.42L184.206 115.966C184.001 116.625 183.657 117.205 183.174 117.705C182.691 118.199 182.095 118.585 181.385 118.864C180.674 119.136 179.876 119.273 178.99 119.273ZM192.788 119.273C191.561 119.273 190.504 118.983 189.618 118.403C188.731 117.824 188.049 117.026 187.572 116.009C187.095 114.991 186.856 113.83 186.856 112.523C186.856 111.193 187.1 110.02 187.589 109.003C188.083 107.98 188.771 107.182 189.652 106.608C190.538 106.028 191.572 105.739 192.754 105.739C193.674 105.739 194.504 105.909 195.243 106.25C195.981 106.591 196.586 107.068 197.058 107.682C197.529 108.295 197.822 109.011 197.936 109.83H195.924C195.771 109.233 195.43 108.705 194.902 108.244C194.379 107.778 193.674 107.545 192.788 107.545C192.004 107.545 191.316 107.75 190.725 108.159C190.14 108.562 189.683 109.134 189.353 109.872C189.029 110.605 188.868 111.466 188.868 112.455C188.868 113.466 189.027 114.347 189.345 115.097C189.669 115.847 190.123 116.429 190.708 116.844C191.299 117.259 191.993 117.466 192.788 117.466C193.311 117.466 193.785 117.375 194.211 117.193C194.637 117.011 194.998 116.75 195.294 116.409C195.589 116.068 195.799 115.659 195.924 115.182H197.936C197.822 115.955 197.541 116.651 197.092 117.27C196.649 117.884 196.061 118.372 195.328 118.736C194.6 119.094 193.754 119.273 192.788 119.273ZM199.845 107.784V105.909H210.481V107.784H206.186V119H204.174V107.784H199.845ZM215.426 116.034L221.733 105.909H224.051V119H222.04V108.875L215.767 119H213.415V105.909H215.426V116.034ZM227.735 123.909V105.909H229.679V107.989H229.917C230.065 107.761 230.27 107.472 230.531 107.119C230.798 106.761 231.179 106.443 231.673 106.165C232.173 105.881 232.849 105.739 233.701 105.739C234.804 105.739 235.775 106.014 236.616 106.565C237.457 107.116 238.113 107.898 238.585 108.909C239.056 109.92 239.292 111.114 239.292 112.489C239.292 113.875 239.056 115.077 238.585 116.094C238.113 117.105 237.46 117.889 236.625 118.446C235.789 118.997 234.826 119.273 233.735 119.273C232.895 119.273 232.221 119.134 231.716 118.855C231.21 118.571 230.821 118.25 230.548 117.892C230.275 117.528 230.065 117.227 229.917 116.989H229.747V123.909H227.735ZM229.713 112.455C229.713 113.443 229.858 114.315 230.147 115.071C230.437 115.821 230.86 116.409 231.417 116.835C231.974 117.256 232.656 117.466 233.463 117.466C234.304 117.466 235.005 117.244 235.568 116.801C236.136 116.352 236.562 115.75 236.846 114.994C237.136 114.233 237.281 113.386 237.281 112.455C237.281 111.534 237.139 110.705 236.855 109.966C236.576 109.222 236.153 108.634 235.585 108.202C235.022 107.764 234.315 107.545 233.463 107.545C232.645 107.545 231.957 107.753 231.4 108.168C230.843 108.577 230.423 109.151 230.139 109.889C229.855 110.622 229.713 111.477 229.713 112.455ZM247.679 119.273C246.497 119.273 245.46 118.991 244.568 118.429C243.681 117.866 242.988 117.08 242.488 116.068C241.994 115.057 241.747 113.875 241.747 112.523C241.747 111.159 241.994 109.969 242.488 108.952C242.988 107.935 243.681 107.145 244.568 106.582C245.46 106.02 246.497 105.739 247.679 105.739C248.86 105.739 249.895 106.02 250.781 106.582C251.673 107.145 252.366 107.935 252.86 108.952C253.36 109.969 253.61 111.159 253.61 112.523C253.61 113.875 253.36 115.057 252.86 116.068C252.366 117.08 251.673 117.866 250.781 118.429C249.895 118.991 248.86 119.273 247.679 119.273ZM247.679 117.466C248.576 117.466 249.315 117.236 249.895 116.776C250.474 116.315 250.903 115.71 251.181 114.96C251.46 114.21 251.599 113.398 251.599 112.523C251.599 111.648 251.46 110.832 251.181 110.077C250.903 109.321 250.474 108.71 249.895 108.244C249.315 107.778 248.576 107.545 247.679 107.545C246.781 107.545 246.042 107.778 245.463 108.244C244.883 108.71 244.454 109.321 244.176 110.077C243.897 110.832 243.758 111.648 243.758 112.523C243.758 113.398 243.897 114.21 244.176 114.96C244.454 115.71 244.883 116.315 245.463 116.776C246.042 117.236 246.781 117.466 247.679 117.466ZM256.681 119V105.909H262.033C263.442 105.909 264.561 106.227 265.391 106.864C266.221 107.5 266.635 108.341 266.635 109.386C266.635 110.182 266.4 110.798 265.928 111.236C265.456 111.668 264.851 111.96 264.113 112.114C264.596 112.182 265.064 112.352 265.519 112.625C265.979 112.898 266.36 113.273 266.661 113.75C266.962 114.222 267.113 114.801 267.113 115.489C267.113 116.159 266.942 116.759 266.601 117.287C266.26 117.815 265.772 118.233 265.135 118.54C264.499 118.847 263.738 119 262.851 119H256.681ZM258.59 117.159H262.851C263.544 117.159 264.087 116.994 264.479 116.665C264.871 116.335 265.067 115.886 265.067 115.318C265.067 114.642 264.871 114.111 264.479 113.724C264.087 113.332 263.544 113.136 262.851 113.136H258.59V117.159ZM258.59 111.398H262.033C262.573 111.398 263.036 111.324 263.422 111.176C263.809 111.023 264.104 110.807 264.309 110.528C264.519 110.244 264.624 109.909 264.624 109.523C264.624 108.972 264.394 108.54 263.934 108.227C263.473 107.909 262.84 107.75 262.033 107.75H258.59V111.398ZM274.01 119.307C273.18 119.307 272.427 119.151 271.751 118.838C271.075 118.52 270.538 118.062 270.14 117.466C269.743 116.864 269.544 116.136 269.544 115.284C269.544 114.534 269.691 113.926 269.987 113.46C270.282 112.989 270.677 112.619 271.172 112.352C271.666 112.085 272.211 111.886 272.808 111.756C273.41 111.619 274.015 111.511 274.623 111.432C275.419 111.33 276.064 111.253 276.558 111.202C277.058 111.145 277.422 111.051 277.649 110.92C277.882 110.79 277.998 110.562 277.998 110.239V110.17C277.998 109.33 277.768 108.676 277.308 108.21C276.853 107.744 276.163 107.511 275.237 107.511C274.277 107.511 273.524 107.722 272.978 108.142C272.433 108.562 272.049 109.011 271.828 109.489L269.919 108.807C270.26 108.011 270.714 107.392 271.282 106.949C271.856 106.5 272.481 106.187 273.157 106.011C273.839 105.83 274.51 105.739 275.169 105.739C275.589 105.739 276.072 105.79 276.618 105.892C277.169 105.989 277.7 106.19 278.211 106.497C278.728 106.804 279.157 107.267 279.498 107.886C279.839 108.506 280.01 109.335 280.01 110.375V119H277.998V117.227H277.896C277.76 117.511 277.532 117.815 277.214 118.139C276.896 118.463 276.473 118.739 275.944 118.966C275.416 119.193 274.771 119.307 274.01 119.307ZM274.316 117.5C275.112 117.5 275.782 117.344 276.328 117.031C276.879 116.719 277.294 116.315 277.572 115.821C277.856 115.327 277.998 114.807 277.998 114.261V112.42C277.913 112.523 277.725 112.616 277.436 112.702C277.152 112.781 276.822 112.852 276.447 112.915C276.078 112.972 275.717 113.023 275.365 113.068C275.018 113.108 274.737 113.142 274.521 113.17C273.998 113.239 273.51 113.349 273.055 113.503C272.606 113.651 272.243 113.875 271.964 114.176C271.691 114.472 271.555 114.875 271.555 115.386C271.555 116.085 271.814 116.614 272.331 116.972C272.853 117.324 273.515 117.5 274.316 117.5ZM292.442 111.534V113.409H285.215V111.534H292.442ZM285.692 105.909V119H283.681V105.909H285.692ZM293.976 105.909V119H291.965V105.909H293.976ZM299.661 116.034L305.968 105.909H308.286V119H306.275V108.875L300.002 119H297.65V105.909H299.661V116.034ZM319.845 119V107.75H316.368C315.583 107.75 314.967 107.932 314.518 108.295C314.069 108.659 313.845 109.159 313.845 109.795C313.845 110.42 314.047 110.912 314.45 111.27C314.859 111.628 315.419 111.807 316.129 111.807H320.356V113.682H316.129C315.243 113.682 314.478 113.526 313.836 113.213C313.194 112.901 312.7 112.455 312.353 111.875C312.007 111.29 311.833 110.597 311.833 109.795C311.833 108.989 312.015 108.295 312.379 107.716C312.743 107.136 313.262 106.69 313.939 106.378C314.62 106.065 315.43 105.909 316.368 105.909H321.754V119H319.845ZM311.118 119L314.833 112.489H317.015L313.299 119H311.118ZM46.082 145.273L50.6502 134.909H52.5593L46.9002 148H45.2638L39.707 134.909H41.582L46.082 145.273ZM40.9343 134.909V148H38.9229V134.909H40.9343ZM51.2298 148V134.909H53.2411V148H51.2298ZM62.2411 148.273C61.0593 148.273 60.0224 147.991 59.1303 147.429C58.244 146.866 57.5508 146.08 57.0508 145.068C56.5565 144.057 56.3093 142.875 56.3093 141.523C56.3093 140.159 56.5565 138.969 57.0508 137.952C57.5508 136.935 58.244 136.145 59.1303 135.582C60.0224 135.02 61.0593 134.739 62.2411 134.739C63.4229 134.739 64.457 135.02 65.3434 135.582C66.2354 136.145 66.9286 136.935 67.4229 137.952C67.9229 138.969 68.1729 140.159 68.1729 141.523C68.1729 142.875 67.9229 144.057 67.4229 145.068C66.9286 146.08 66.2354 146.866 65.3434 147.429C64.457 147.991 63.4229 148.273 62.2411 148.273ZM62.2411 146.466C63.1388 146.466 63.8775 146.236 64.457 145.776C65.0366 145.315 65.4656 144.71 65.744 143.96C66.0224 143.21 66.1616 142.398 66.1616 141.523C66.1616 140.648 66.0224 139.832 65.744 139.077C65.4656 138.321 65.0366 137.71 64.457 137.244C63.8775 136.778 63.1388 136.545 62.2411 136.545C61.3434 136.545 60.6048 136.778 60.0252 137.244C59.4457 137.71 59.0167 138.321 58.7383 139.077C58.4599 139.832 58.3207 140.648 58.3207 141.523C58.3207 142.398 58.4599 143.21 58.7383 143.96C59.0167 144.71 59.4457 145.315 60.0252 145.776C60.6048 146.236 61.3434 146.466 62.2411 146.466ZM80.9592 130L81.9819 131.227C81.5842 131.614 81.1239 131.884 80.6012 132.037C80.0785 132.19 79.4876 132.284 78.8285 132.318C78.1694 132.352 77.4364 132.386 76.6296 132.42C75.7205 132.455 74.9677 132.676 74.3711 133.085C73.7745 133.494 73.3143 134.085 72.9904 134.858C72.6665 135.631 72.4592 136.58 72.3683 137.705H72.5387C72.9819 136.886 73.5955 136.284 74.3796 135.898C75.1637 135.511 76.0046 135.318 76.9023 135.318C77.9251 135.318 78.8455 135.557 79.6637 136.034C80.4819 136.511 81.1296 137.219 81.6069 138.156C82.0842 139.094 82.3228 140.25 82.3228 141.625C82.3228 142.994 82.0785 144.176 81.5898 145.17C81.1069 146.165 80.4279 146.932 79.5529 147.472C78.6836 148.006 77.6637 148.273 76.4933 148.273C75.3228 148.273 74.2972 147.997 73.4165 147.446C72.5359 146.889 71.8512 146.065 71.3626 144.974C70.8739 143.878 70.6296 142.523 70.6296 140.909V139.511C70.6296 136.597 71.1239 134.386 72.1126 132.881C73.1069 131.375 74.6012 130.597 76.5955 130.545C77.3001 130.523 77.9279 130.517 78.479 130.528C79.0302 130.54 79.5103 130.514 79.9194 130.452C80.3285 130.389 80.6751 130.239 80.9592 130ZM76.4933 146.466C77.283 146.466 77.962 146.267 78.5302 145.869C79.104 145.472 79.5444 144.912 79.8512 144.19C80.158 143.463 80.3114 142.608 80.3114 141.625C80.3114 140.67 80.1552 139.858 79.8427 139.188C79.5359 138.517 79.0955 138.006 78.5217 137.653C77.9478 137.301 77.2603 137.125 76.4592 137.125C75.8739 137.125 75.3484 137.224 74.8825 137.423C74.4165 137.622 74.0188 137.915 73.6893 138.301C73.3597 138.687 73.104 139.159 72.9222 139.716C72.7461 140.273 72.6523 140.909 72.641 141.625C72.641 143.091 72.9847 144.264 73.6722 145.145C74.3597 146.026 75.3001 146.466 76.4933 146.466ZM87.4109 145.034L93.7177 134.909H96.0359V148H94.0245V137.875L87.7518 148H85.3995V134.909H87.4109V145.034ZM98.5607 148V146.125H99.038C99.43 146.125 99.7567 146.048 100.018 145.895C100.279 145.736 100.49 145.46 100.649 145.068C100.814 144.67 100.939 144.119 101.024 143.415C101.115 142.705 101.18 141.801 101.22 140.705L101.458 134.909H110.186V148H108.174V136.784H103.368L103.163 141.455C103.118 142.528 103.021 143.474 102.873 144.293C102.731 145.105 102.512 145.787 102.217 146.338C101.927 146.889 101.541 147.304 101.058 147.582C100.575 147.861 99.9698 148 99.2425 148H98.5607ZM115.615 139.648H119.365C120.899 139.648 122.072 140.037 122.885 140.815C123.697 141.594 124.103 142.58 124.103 143.773C124.103 144.557 123.922 145.27 123.558 145.912C123.194 146.548 122.66 147.057 121.956 147.438C121.251 147.812 120.387 148 119.365 148H113.876V134.909H115.887V146.125H119.365C120.16 146.125 120.814 145.915 121.325 145.494C121.836 145.074 122.092 144.534 122.092 143.875C122.092 143.182 121.836 142.616 121.325 142.179C120.814 141.741 120.16 141.523 119.365 141.523H115.615V139.648ZM135.926 140.534V142.409H128.699V140.534H135.926ZM129.176 134.909V148H127.165V134.909H129.176ZM137.461 134.909V148H135.449V134.909H137.461ZM146.452 148.273C145.27 148.273 144.233 147.991 143.341 147.429C142.455 146.866 141.762 146.08 141.262 145.068C140.767 144.057 140.52 142.875 140.52 141.523C140.52 140.159 140.767 138.969 141.262 137.952C141.762 136.935 142.455 136.145 143.341 135.582C144.233 135.02 145.27 134.739 146.452 134.739C147.634 134.739 148.668 135.02 149.554 135.582C150.446 136.145 151.14 136.935 151.634 137.952C152.134 138.969 152.384 140.159 152.384 141.523C152.384 142.875 152.134 144.057 151.634 145.068C151.14 146.08 150.446 146.866 149.554 147.429C148.668 147.991 147.634 148.273 146.452 148.273ZM146.452 146.466C147.35 146.466 148.088 146.236 148.668 145.776C149.248 145.315 149.676 144.71 149.955 143.96C150.233 143.21 150.373 142.398 150.373 141.523C150.373 140.648 150.233 139.832 149.955 139.077C149.676 138.321 149.248 137.71 148.668 137.244C148.088 136.778 147.35 136.545 146.452 136.545C145.554 136.545 144.816 136.778 144.236 137.244C143.657 137.71 143.228 138.321 142.949 139.077C142.671 139.832 142.532 140.648 142.532 141.523C142.532 142.398 142.671 143.21 142.949 143.96C143.228 144.71 143.657 145.315 144.236 145.776C144.816 146.236 145.554 146.466 146.452 146.466ZM163.534 134.909V136.784H157.466V148H155.454V134.909H163.534ZM171.108 148.273C169.926 148.273 168.89 147.991 167.998 147.429C167.111 146.866 166.418 146.08 165.918 145.068C165.424 144.057 165.176 142.875 165.176 141.523C165.176 140.159 165.424 138.969 165.918 137.952C166.418 136.935 167.111 136.145 167.998 135.582C168.89 135.02 169.926 134.739 171.108 134.739C172.29 134.739 173.324 135.02 174.211 135.582C175.103 136.145 175.796 136.935 176.29 137.952C176.79 138.969 177.04 140.159 177.04 141.523C177.04 142.875 176.79 144.057 176.29 145.068C175.796 146.08 175.103 146.866 174.211 147.429C173.324 147.991 172.29 148.273 171.108 148.273ZM171.108 146.466C172.006 146.466 172.745 146.236 173.324 145.776C173.904 145.315 174.333 144.71 174.611 143.96C174.89 143.21 175.029 142.398 175.029 141.523C175.029 140.648 174.89 139.832 174.611 139.077C174.333 138.321 173.904 137.71 173.324 137.244C172.745 136.778 172.006 136.545 171.108 136.545C170.211 136.545 169.472 136.778 168.892 137.244C168.313 137.71 167.884 138.321 167.605 139.077C167.327 139.832 167.188 140.648 167.188 141.523C167.188 142.398 167.327 143.21 167.605 143.96C167.884 144.71 168.313 145.315 168.892 145.776C169.472 146.236 170.211 146.466 171.108 146.466ZM186.86 148V134.909H197.156V148H195.145V136.784H188.872V148H186.86ZM200.829 152.909V134.909H202.772V136.989H203.011C203.159 136.761 203.363 136.472 203.625 136.119C203.892 135.761 204.272 135.443 204.767 135.165C205.267 134.881 205.943 134.739 206.795 134.739C207.897 134.739 208.869 135.014 209.71 135.565C210.551 136.116 211.207 136.898 211.679 137.909C212.15 138.92 212.386 140.114 212.386 141.489C212.386 142.875 212.15 144.077 211.679 145.094C211.207 146.105 210.554 146.889 209.718 147.446C208.883 147.997 207.92 148.273 206.829 148.273C205.988 148.273 205.315 148.134 204.809 147.855C204.304 147.571 203.914 147.25 203.642 146.892C203.369 146.528 203.159 146.227 203.011 145.989H202.841V152.909H200.829ZM202.806 141.455C202.806 142.443 202.951 143.315 203.241 144.071C203.531 144.821 203.954 145.409 204.511 145.835C205.068 146.256 205.75 146.466 206.556 146.466C207.397 146.466 208.099 146.244 208.662 145.801C209.23 145.352 209.656 144.75 209.94 143.994C210.23 143.233 210.375 142.386 210.375 141.455C210.375 140.534 210.233 139.705 209.949 138.966C209.67 138.222 209.247 137.634 208.679 137.202C208.116 136.764 207.409 136.545 206.556 136.545C205.738 136.545 205.051 136.753 204.494 137.168C203.937 137.577 203.517 138.151 203.233 138.889C202.949 139.622 202.806 140.477 202.806 141.455ZM217.466 145.034L223.772 134.909H226.091V148H224.079V137.875L217.806 148H215.454V134.909H217.466V145.034ZM228.615 148V146.125H229.093C229.485 146.125 229.811 146.048 230.073 145.895C230.334 145.736 230.544 145.46 230.703 145.068C230.868 144.67 230.993 144.119 231.078 143.415C231.169 142.705 231.235 141.801 231.275 140.705L231.513 134.909H240.24V148H238.229V136.784H233.422L233.218 141.455C233.172 142.528 233.076 143.474 232.928 144.293C232.786 145.105 232.567 145.787 232.272 146.338C231.982 146.889 231.596 147.304 231.113 147.582C230.63 147.861 230.025 148 229.297 148H228.615ZM249.249 148.273C248.067 148.273 247.03 147.991 246.138 147.429C245.252 146.866 244.559 146.08 244.059 145.068C243.564 144.057 243.317 142.875 243.317 141.523C243.317 140.159 243.564 138.969 244.059 137.952C244.559 136.935 245.252 136.145 246.138 135.582C247.03 135.02 248.067 134.739 249.249 134.739C250.431 134.739 251.465 135.02 252.351 135.582C253.243 136.145 253.936 136.935 254.431 137.952C254.931 138.969 255.181 140.159 255.181 141.523C255.181 142.875 254.931 144.057 254.431 145.068C253.936 146.08 253.243 146.866 252.351 147.429C251.465 147.991 250.431 148.273 249.249 148.273ZM249.249 146.466C250.147 146.466 250.885 146.236 251.465 145.776C252.044 145.315 252.473 144.71 252.752 143.96C253.03 143.21 253.169 142.398 253.169 141.523C253.169 140.648 253.03 139.832 252.752 139.077C252.473 138.321 252.044 137.71 251.465 137.244C250.885 136.778 250.147 136.545 249.249 136.545C248.351 136.545 247.613 136.778 247.033 137.244C246.453 137.71 246.025 138.321 245.746 139.077C245.468 139.832 245.328 140.648 245.328 141.523C245.328 142.398 245.468 143.21 245.746 143.96C246.025 144.71 246.453 145.315 247.033 145.776C247.613 146.236 248.351 146.466 249.249 146.466ZM256.894 148L262.212 141.352L256.962 134.909H259.348L263.712 140.5H264.803V134.909H266.814V140.5H267.871L272.235 134.909H274.621L269.405 141.352L274.689 148H272.269L267.837 142.375H266.814V148H264.803V142.375H263.78L259.314 148H256.894ZM282.513 148.273C281.252 148.273 280.164 147.994 279.249 147.438C278.34 146.875 277.638 146.091 277.144 145.085C276.655 144.074 276.411 142.898 276.411 141.557C276.411 140.216 276.655 139.034 277.144 138.011C277.638 136.983 278.326 136.182 279.206 135.608C280.093 135.028 281.127 134.739 282.309 134.739C282.99 134.739 283.664 134.852 284.328 135.08C284.993 135.307 285.598 135.676 286.144 136.188C286.689 136.693 287.124 137.364 287.448 138.199C287.772 139.034 287.934 140.062 287.934 141.284V142.136H277.843V140.398H285.888C285.888 139.659 285.74 139 285.445 138.42C285.155 137.841 284.74 137.384 284.201 137.048C283.667 136.713 283.036 136.545 282.309 136.545C281.507 136.545 280.814 136.744 280.229 137.142C279.65 137.534 279.203 138.045 278.891 138.676C278.578 139.307 278.422 139.983 278.422 140.705V141.864C278.422 142.852 278.593 143.69 278.934 144.378C279.28 145.06 279.76 145.58 280.374 145.938C280.988 146.29 281.701 146.466 282.513 146.466C283.042 146.466 283.519 146.392 283.945 146.244C284.377 146.091 284.749 145.864 285.061 145.562C285.374 145.256 285.615 144.875 285.786 144.42L287.729 144.966C287.525 145.625 287.181 146.205 286.698 146.705C286.215 147.199 285.618 147.585 284.908 147.864C284.198 148.136 283.4 148.273 282.513 148.273ZM299.755 140.534V142.409H292.527V140.534H299.755ZM293.005 134.909V148H290.993V134.909H293.005ZM301.289 134.909V148H299.277V134.909H301.289ZM306.973 145.034L313.28 134.909H315.598V148H313.587V137.875L307.314 148H304.962V134.909H306.973V145.034ZM327.157 148V136.75H323.68C322.896 136.75 322.279 136.932 321.831 137.295C321.382 137.659 321.157 138.159 321.157 138.795C321.157 139.42 321.359 139.912 321.762 140.27C322.172 140.628 322.731 140.807 323.441 140.807H327.669V142.682H323.441C322.555 142.682 321.791 142.526 321.149 142.213C320.507 141.901 320.012 141.455 319.666 140.875C319.319 140.29 319.146 139.597 319.146 138.795C319.146 137.989 319.328 137.295 319.691 136.716C320.055 136.136 320.575 135.69 321.251 135.378C321.933 135.065 322.743 134.909 323.68 134.909H329.066V148H327.157ZM318.43 148L322.146 141.489H324.328L320.612 148H318.43Z" fill="#E4E7EC"/>
</g>
<defs>
<filter id="filter0_i_214_120" x="0" y="0" width="368" height="254" filterUnits="userSpaceOnUse" color-interpolation-filters="sRGB">
<feFlood flood-opacity="0" result="BackgroundImageFix"/>
<feBlend mode="normal" in="SourceGraphic" in2="BackgroundImageFix" result="shape"/>
<feColorMatrix in="SourceAlpha" type="matrix" values="0 0 0 0 0 0 0 0 0 0 0 0 0 0 0 0 0 0 127 0" result="hardAlpha"/>
<feOffset dy="4"/>
<feGaussianBlur stdDeviation="2"/>
<feComposite in2="hardAlpha" operator="arithmetic" k2="-1" k3="1"/>
<feColorMatrix type="matrix" values="0 0 0 0 0.410266 0 0 0 0 0 0 0 0 0 0.911702 0 0 0 1 0"/>
<feBlend mode="normal" in2="shape" result="effect1_innerShadow_214_120"/>
</filter>
<filter id="filter1_i_214_120" x="0" y="0" width="368" height="250" filterUnits="userSpaceOnUse" color-interpolation-filters="sRGB">
<feFlood flood-opacity="0" result="BackgroundImageFix"/>
<feBlend mode="normal" in="SourceGraphic" in2="BackgroundImageFix" result="shape"/>
<feColorMatrix in="SourceAlpha" type="matrix" values="0 0 0 0 0 0 0 0 0 0 0 0 0 0 0 0 0 0 127 0" result="hardAlpha"/>
<feMorphology radius="5" operator="erode" in="SourceAlpha" result="effect1_innerShadow_214_120"/>
<feOffset/>
<feGaussianBlur stdDeviation="5"/>
<feComposite in2="hardAlpha" operator="arithmetic" k2="-1" k3="1"/>
<feColorMatrix type="matrix" values="0 0 0 0 0.350588 0 0 0 0 0 0 0 0 0 0.779085 0 0 0 1 0"/>
<feBlend mode="normal" in2="shape" result="effect1_innerShadow_214_120"/>
</filter>
</defs>
</svg>
